<svg width="19" height="36" viewBox="0 0 19 36" fill="none" xmlns="http://www.w3.org/2000/svg">
<path fill-rule="evenodd" clip-rule="evenodd" d="M0.393462 0.401167C0.517869 0.274003 0.665659 0.173112 0.828368 0.104273C0.991077 0.0354343 1.16551 0 1.34167 0C1.51783 0 1.69226 0.0354343 1.85497 0.104273C2.01768 0.173112 2.16547 0.274003 2.28988 0.401167L18.3612 16.7872C18.4859 16.914 18.5849 17.0647 18.6524 17.2306C18.7199 17.3965 18.7546 17.5743 18.7546 17.7539C18.7546 17.9335 18.7199 18.1114 18.6524 18.2773C18.5849 18.4432 18.4859 18.5939 18.3612 18.7207L2.28988 35.1067C2.0384 35.3631 1.69732 35.5071 1.34167 35.5071C0.986022 35.5071 0.644942 35.3631 0.393462 35.1067C0.141982 34.8503 0.000701201 34.5025 0.000701201 34.1399C0.000701201 33.7773 0.141982 33.4296 0.393462 33.1731L15.5192 17.7539L0.393462 2.33471C0.26874 2.20787 0.169786 2.05719 0.102269 1.89129C0.0347525 1.7254 0 1.54755 0 1.36794C0 1.18833 0.0347525 1.01048 0.102269 0.844589C0.169786 0.678694 0.26874 0.52801 0.393462 0.401167Z" fill="#5661CB"/>
</svg>
