<svg width="19" height="36" viewBox="0 0 19 36" fill="none" xmlns="http://www.w3.org/2000/svg">
<path fill-rule="evenodd" clip-rule="evenodd" d="M18.3614 0.401167C18.237 0.274003 18.0892 0.173112 17.9265 0.104273C17.7638 0.0354343 17.5894 0 17.4132 0C17.2371 0 17.0626 0.0354343 16.8999 0.104273C16.7372 0.173112 16.5894 0.274003 16.465 0.401167L0.393677 16.7872C0.268955 16.914 0.170001 17.0647 0.102484 17.2306C0.0349669 17.3965 0.000213623 17.5743 0.000213623 17.7539C0.000213623 17.9335 0.0349669 18.1114 0.102484 18.2773C0.170001 18.4432 0.268955 18.5939 0.393677 18.7207L16.465 35.1067C16.7165 35.3631 17.0576 35.5071 17.4132 35.5071C17.7689 35.5071 18.1099 35.3631 18.3614 35.1067C18.6129 34.8503 18.7542 34.5025 18.7542 34.1399C18.7542 33.7773 18.6129 33.4295 18.3614 33.1731L3.23562 17.7539L18.3614 2.33471C18.4861 2.20787 18.5851 2.05719 18.6526 1.89129C18.7201 1.7254 18.7549 1.54755 18.7549 1.36794C18.7549 1.18833 18.7201 1.01048 18.6526 0.844589C18.5851 0.678694 18.4861 0.52801 18.3614 0.401167Z" fill="#5661CB"/>
</svg>
