<svg width="19" height="26" viewBox="0 0 19 26" fill="none" xmlns="http://www.w3.org/2000/svg">
<path d="M10.5043 24.0086C10.0962 24.4557 9.75159 24.8177 9.5 25.0767C9.24842 24.8177 8.90382 24.4557 8.49571 24.0086C7.61518 23.0439 6.4424 21.6867 5.27115 20.1154C4.0985 18.5422 2.93664 16.7666 2.07016 14.9648C1.20041 13.1562 0.65 11.3654 0.65 9.75C0.65 7.33116 1.5864 5.01468 3.24803 3.30932C4.90911 1.60453 7.15836 0.65 9.5 0.65C11.8416 0.65 14.0909 1.60453 15.752 3.30932C17.4136 5.01468 18.35 7.33116 18.35 9.75C18.35 11.3654 17.7996 13.1562 16.9298 14.9648C16.0634 16.7666 14.9015 18.5422 13.7289 20.1154C12.5576 21.6867 11.3848 23.0439 10.5043 24.0086ZM9.5 15.275C10.9377 15.275 12.313 14.6887 13.3243 13.6508C14.3351 12.6134 14.9 11.21 14.9 9.75C14.9 8.29005 14.3351 6.8866 13.3243 5.84924C12.313 4.81131 10.9377 4.225 9.5 4.225C8.0623 4.225 6.68701 4.81131 5.67569 5.84924C4.66493 6.8866 4.1 8.29005 4.1 9.75C4.1 11.21 4.66493 12.6134 5.67569 13.6508C6.68701 14.6887 8.0623 15.275 9.5 15.275Z" stroke="#5661CB" stroke-width="1.3"/>
</svg>
