<svg width="27" height="26" viewBox="0 0 27 26" fill="none" xmlns="http://www.w3.org/2000/svg">
<path fill-rule="evenodd" clip-rule="evenodd" d="M4.8341 24.2176C4.70248 24.9668 5.4416 25.5524 6.09298 25.2182L13.5011 21.4112L20.9075 25.2182C21.5589 25.5524 22.298 24.9668 22.1664 24.2192L20.7658 16.2374L26.7109 10.5741C27.266 10.0442 26.9775 9.07562 26.2333 8.97099L17.9679 7.79649L14.2824 0.49468C14.2122 0.346667 14.1014 0.221614 13.963 0.134049C13.8245 0.046483 13.6641 0 13.5003 0C13.3364 0 13.176 0.046483 13.0375 0.134049C12.8991 0.221614 12.7883 0.346667 12.7181 0.49468L9.0326 7.79818L0.767228 8.97268C0.0230402 9.07731 -0.265522 10.0459 0.289665 10.5758L6.23473 16.2391L4.8341 24.2209V24.2176ZM13.1113 19.5482L6.89117 22.7444L8.06229 16.0669C8.08973 15.9132 8.07899 15.7551 8.03103 15.6065C7.98307 15.4579 7.89935 15.3234 7.78723 15.2147L2.88335 10.5404L9.7211 9.56837C9.86269 9.54699 9.99699 9.4916 10.1125 9.40696C10.228 9.32232 10.3213 9.21094 10.3843 9.08237L13.5011 2.90949L16.6162 9.08237C16.6793 9.21094 16.7725 9.32232 16.888 9.40696C17.0035 9.4916 17.1378 9.54699 17.2794 9.56837L24.1172 10.5387L19.2133 15.2131C19.1008 15.3218 19.0168 15.4566 18.9688 15.6056C18.9209 15.7545 18.9104 15.913 18.9382 16.0669L20.1094 22.7444L13.8892 19.5482C13.7689 19.4862 13.6356 19.4539 13.5003 19.4539C13.3649 19.4539 13.2316 19.4862 13.1113 19.5482V19.5482Z" fill="#5661CB"/>
</svg>
